<svg width="26" height="50" viewBox="0 0 26 50" fill="none" xmlns="http://www.w3.org/2000/svg">
<path d="M0.5 0H25.5V20.8125C25.5 21.7708 25.2604 22.6458 24.7812 23.4375C24.3021 24.2292 23.6458 24.875 22.8125 25.375L14 30.5L15.625 36.5625H24L17.1875 41.625L19.8125 50L13 44.9375L6.125 50L8.75 41.625L1.9375 36.5625H10.375L11.9375 30.5L3.1875 25.375C2.35417 24.875 1.69792 24.2292 1.21875 23.4375C0.739583 22.6458 0.5 21.7708 0.5 20.8125V0ZM4.25 3.75V20.8125C4.25 21.1042 4.34375 21.375 4.53125 21.625C4.71875 21.875 5 22.1042 5.375 22.3125L11.375 25.625V3.75H4.25ZM21.75 3.75H15.125V25.625L20.625 22.3125C21 22.1042 21.2812 21.875 21.4688 21.625C21.6562 21.375 21.75 21.1042 21.75 20.8125V3.75Z" fill="black"/>
</svg>
