<svg width="45" height="46" viewBox="0 0 45 46" fill="none" xmlns="http://www.w3.org/2000/svg">
<path d="M0 45.5V41.75H39.9375V45.5H0ZM9.4375 38C6.8125 38 4.58333 37.0938 2.75 35.2812C0.916666 33.4688 0 31.25 0 28.625V0.5H41.25C42.2917 0.5 43.1771 0.864583 43.9062 1.59375C44.6354 2.32292 45 3.20833 45 4.25V14.25C45 15.2917 44.6354 16.1771 43.9062 16.9062C43.1771 17.6354 42.2917 18 41.25 18H35.25V28.625C35.25 31.25 34.3333 33.4688 32.5 35.2812C30.6667 37.0938 28.4375 38 25.8125 38H9.4375ZM9.4375 34.25H25.8125C27.3125 34.25 28.6354 33.6771 29.7812 32.5312C30.9271 31.3854 31.5 30.0833 31.5 28.625V4.25H3.75V28.625C3.75 30.0833 4.33333 31.3854 5.5 32.5312C6.66667 33.6771 7.97917 34.25 9.4375 34.25ZM35.25 14.25H41.25V4.25H35.25V14.25Z" fill="black"/>
</svg>
