<svg width="50" height="40" viewBox="0 0 50 40" fill="none" xmlns="http://www.w3.org/2000/svg">
<path d="M30.625 40V36.25H38.125C39 36.25 39.7396 35.9479 40.3438 35.3438C40.9479 34.7396 41.25 34 41.25 33.125V26.875C41.25 25.3333 41.7188 23.9583 42.6562 22.75C43.5938 21.5417 44.7917 20.7083 46.25 20.25V19.75C44.7917 19.3333 43.5938 18.5104 42.6562 17.2812C41.7188 16.0521 41.25 14.6667 41.25 13.125V6.875C41.25 6 40.9479 5.26042 40.3438 4.65625C39.7396 4.05208 39 3.75 38.125 3.75H30.625V0H38.125C40.0417 0 41.6667 0.666667 43 2C44.3333 3.33333 45 4.95833 45 6.875V13.125C45 14 45.3021 14.7396 45.9062 15.3438C46.5104 15.9479 47.25 16.25 48.125 16.25H50V23.75H48.125C47.25 23.75 46.5104 24.0521 45.9062 24.6562C45.3021 25.2604 45 26 45 26.875V33.125C45 35.0417 44.3333 36.6667 43 38C41.6667 39.3333 40.0417 40 38.125 40H30.625ZM11.875 40C9.95833 40 8.33333 39.3333 7 38C5.66667 36.6667 5 35.0417 5 33.125V26.875C5 26 4.69792 25.2604 4.09375 24.6562C3.48958 24.0521 2.75 23.75 1.875 23.75H0V16.25H1.875C2.75 16.25 3.48958 15.9479 4.09375 15.3438C4.69792 14.7396 5 14 5 13.125V6.875C5 4.95833 5.66667 3.33333 7 2C8.33333 0.666667 9.95833 0 11.875 0H19.375V3.75H11.875C11 3.75 10.2604 4.05208 9.65625 4.65625C9.05208 5.26042 8.75 6 8.75 6.875V13.125C8.75 14.6667 8.28125 16.0521 7.34375 17.2812C6.40625 18.5104 5.20833 19.3333 3.75 19.75V20.25C5.20833 20.7083 6.40625 21.5417 7.34375 22.75C8.28125 23.9583 8.75 25.3333 8.75 26.875V33.125C8.75 34 9.05208 34.7396 9.65625 35.3438C10.2604 35.9479 11 36.25 11.875 36.25H19.375V40H11.875Z" fill="black"/>
</svg>
